<?xml version="1.0" standalone="no"?>
<!DOCTYPE svg PUBLIC "-//W3C//DTD SVG 20010904//EN"
 "http://www.w3.org/TR/2001/REC-SVG-20010904/DTD/svg10.dtd">
<svg version="1.0" xmlns="http://www.w3.org/2000/svg"
 width="225.000000pt" height="225.000000pt" viewBox="0 0 225.000000 225.000000"
 preserveAspectRatio="xMidYMid meet">

<g transform="translate(0.000000,225.000000) scale(0.100000,-0.100000)"
fill="#000000" stroke="none">
<path d="M983 2240 c-310 -44 -576 -201 -763 -451 -144 -194 -213 -407 -213
-664 0 -103 5 -173 16 -222 103 -455 425 -777 880 -880 99 -22 345 -22 444 0
348 79 633 297 781 598 87 177 115 302 115 504 0 202 -28 327 -115 504 -148
301 -440 525 -781 597 -88 18 -280 26 -364 14z m352 -99 c206 -43 366 -130
521 -285 155 -155 242 -315 285 -521 25 -120 25 -300 0 -420 -80 -388 -375
-695 -765 -796 -103 -27 -297 -36 -404 -19 -415 66 -748 368 -854 775 -20 77
-23 113 -23 255 1 182 15 257 75 399 133 311 412 542 740 612 117 24 307 25
425 0z"/>
<path d="M1010 2079 c-135 -17 -282 -68 -386 -134 -72 -45 -144 -103 -144
-115 0 -5 13 -18 30 -30 l30 -21 43 35 c71 58 177 115 277 148 92 31 100 32
265 32 159 0 175 -2 255 -28 99 -33 195 -81 264 -134 27 -20 55 -41 62 -47 10
-7 21 -2 41 17 27 27 27 27 7 49 -32 36 -175 125 -249 156 -93 39 -172 60
-275 73 -94 11 -126 11 -220 -1z"/>
<path d="M366 1714 c-25 -33 -66 -97 -90 -144 -135 -262 -148 -548 -37 -817
33 -80 117 -216 156 -253 l26 -24 27 27 c19 20 24 31 17 41 -6 7 -27 35 -47
62 -53 69 -101 165 -134 264 -26 80 -28 96 -28 255 -1 167 0 172 32 265 38
108 84 195 143 270 l41 52 -30 30 -30 30 -46 -58z"/>
<path d="M1800 1746 c-20 -22 -21 -28 -9 -44 111 -152 159 -247 190 -379 31
-128 24 -331 -16 -453 -40 -125 -98 -232 -164 -303 l-25 -27 31 -31 31 -31 47
58 c54 69 146 253 169 339 59 227 34 472 -69 680 -42 85 -127 204 -151 212 -5
2 -21 -8 -34 -21z"/>
<path d="M500 445 c-28 -30 -23 -38 64 -100 273 -193 619 -233 926 -108 83 34
186 95 242 143 l43 38 -24 26 c-14 14 -28 26 -33 26 -5 0 -31 -18 -59 -40 -74
-58 -161 -104 -269 -142 -93 -32 -99 -33 -265 -33 -166 0 -172 1 -265 33 -108
38 -195 84 -269 142 -28 22 -54 40 -59 40 -5 0 -19 -11 -32 -25z"/>
</g>
</svg>
